# xmcd
#
# Track frame offsets:
#	150
#	10971
#	26870
#	41331
#	57193
#	76934
#	91903
#	104895
#	125469
#	147132
#	158747
#	180861
#	198704
#	217401
#	234480
#	245387
#	261829
#	274870
#	292178
#	307145
#	317108
#	331867
#
# Disc length: 4659 seconds
#
# Revision: 1
# Processed by: cddbd v1.5.1PL0 Copyright (c) Steve Scherf et al.
# Submitted via: audiograbber 1.82.02
#
DISCID=48123116
DTITLE=Willie Nelson - Stardust
DYEAR=1900
DGENRE=Country
TTITLE0=Blue eyes cryin in the rain
TTITLE1=Always on my mind
TTITLE2=Cold cold heart
TTITLE3=Crazy
TTITLE4=Georgia on my mind
TTITLE5=I fall to pieces
TTITLE6=Kansas city
TTITLE7=Mendocino county feat lee a
TTITLE8=Poncho and lefty
TTITLE9=On the road again
TTITLE10=Recollection Phoenix
TTITLE11=Stardust
TTITLE12=Won't catch me cryin
TTITLE13=It's magic
TTITLE14=It makes no difference now
TTITLE15=All the girls I loved before
TTITLE16=You are my sunshine
TTITLE17=Faded love
TTITLE18=Luchenbach Texas
TTITLE19=I gotta get drunk
TTITLE20=You'll never know
TTITLE21=Seven Spanish angels
EXTD=
EXTT0=
EXTT1=
EXTT2=
EXTT3=
EXTT4=
EXTT5=
EXTT6=
EXTT7=
EXTT8=
EXTT9=
EXTT10=
EXTT11=
EXTT12=
EXTT13=
EXTT14=
EXTT15=
EXTT16=
EXTT17=
EXTT18=
EXTT19=
EXTT20=
EXTT21=
PLAYORDER=
